# 3ds Max Wavefront OBJ Exporter v0.97b - (c)2007 guruware
# 创建的文件:07.03.2019 17:25:54

mtllib number_2.mtl

#
# object Box001
#

v  -24.7278 0.0000 6.6282
v  -24.7278 0.0000 -6.1718
v  20.0722 0.0000 -6.1718
v  20.0722 0.0000 6.6282
v  -24.7278 40.7000 6.6282
v  20.0722 40.7000 6.6282
v  20.0722 40.7000 -6.1718
v  -24.7278 40.7000 -6.1718
# 8 vertices

vn 0.0000 -1.0000 -0.0000
vn 0.0000 1.0000 -0.0000
vn 0.0000 0.0000 1.0000
vn 1.0000 0.0000 -0.0000
vn 0.0000 0.0000 -1.0000
vn -1.0000 0.0000 -0.0000
# 6 vertex normals

vt 0.0020 0.2866 0.0000
vt 0.0020 0.0020 0.0000
vt 0.9980 0.0020 0.0000
vt 0.9980 0.2866 0.0000
vt 0.0615 0.2954 0.0000
vt 0.5951 0.2954 0.0000
vt 0.5951 0.4944 0.0000
vt 0.0615 0.4944 0.0000
vt 0.0768 0.5019 0.0000
vt 0.6124 0.5019 0.0000
vt 0.6124 0.9088 0.0000
vt 0.0768 0.9088 0.0000
vt 0.6417 0.5028 0.0000
vt 0.7995 0.5028 0.0000
vt 0.7995 0.8794 0.0000
vt 0.6417 0.8794 0.0000
vt 0.0769 0.5018 0.0000
vt 0.6125 0.5018 0.0000
vt 0.6125 0.9089 0.0000
vt 0.0769 0.9089 0.0000
vt 0.6412 0.5029 0.0000
vt 0.7992 0.5029 0.0000
vt 0.7992 0.8791 0.0000
vt 0.6412 0.8791 0.0000
# 24 texture coords

g Box001
usemtl 01___Default
s 2
f 1/1/1 2/2/1 3/3/1 4/4/1 
s 4
f 5/5/2 6/6/2 7/7/2 8/8/2 
s 8
f 1/9/3 4/10/3 6/11/3 5/12/3 
s 16
f 4/13/4 3/14/4 7/15/4 6/16/4 
s 32
f 3/17/5 2/18/5 8/19/5 7/20/5 
s 64
f 2/21/6 1/22/6 5/23/6 8/24/6 
# 6 polygons

